<svg xmlns="http://www.w3.org/2000/svg" xmlns:xlink="http://www.w3.org/1999/xlink" viewBox="0 0 527.03 116.48"><defs><style>.cls-1,.cls-12,.cls-13,.cls-14,.cls-15,.cls-16,.cls-17,.cls-18,.cls-19,.cls-20,.cls-21,.cls-22,.cls-23,.cls-24,.cls-25,.cls-26,.cls-27,.cls-28,.cls-29,.cls-30{fill:none;}.cls-2{isolation:isolate;}.cls-3{fill:#fff;}.cls-4{fill:#fcc978;}.cls-5,.cls-9{mix-blend-mode:multiply;}.cls-6{clip-path:url(#clip-path);}.cls-7,.cls-9{fill:#31251c;}.cls-8{clip-path:url(#clip-path-2);}.cls-10{clip-path:url(#clip-path-3);}.cls-11{mask:url(#mask);}.cls-12,.cls-13,.cls-14,.cls-15,.cls-16,.cls-17,.cls-18,.cls-19,.cls-20,.cls-21,.cls-22,.cls-23,.cls-24,.cls-25,.cls-26,.cls-27,.cls-28,.cls-29,.cls-30{stroke:#31251c;stroke-miterlimit:10;}.cls-12{stroke-width:0.2px;}.cls-13{stroke-width:0.2px;}.cls-14{stroke-width:0.21px;}.cls-15{stroke-width:0.21px;}.cls-16{stroke-width:0.21px;}.cls-17{stroke-width:0.22px;}.cls-18{stroke-width:0.22px;}.cls-19{stroke-width:0.19px;}.cls-20{stroke-width:0.19px;}.cls-21{stroke-width:0.18px;}.cls-22{stroke-width:0.18px;}.cls-23{stroke-width:0.18px;}.cls-24{stroke-width:0.17px;}.cls-25{stroke-width:0.17px;}.cls-26{stroke-width:0.15px;}.cls-27{stroke-width:0.15px;}.cls-28{stroke-width:0.14px;}.cls-29{stroke-width:0.11px;}.cls-30{stroke-width:0.12px;}.cls-31{filter:url(#luminosity-noclip);}</style><clipPath id="clip-path" transform="translate(-304.17 -242.88)"><path class="cls-1" d="M398.73,259c-3.48-10.19-8.21-15.87-8.21-15.87-7,6.61-23.1,12.85-51.11,2.93s-35.23,5.93-35.23,11.67c0,3.06,1,10.36,10.65,10.36,6.13,0,9.64-5.64,9.64-8.91s-2.62-7.44-2.62-7.44c4.39,0,6.39,0,13.48,2.93L329.51,268l0.66,1.52,6.29-14.32c0.91,0.39,1.91.82,3,1.3l-7.51,17.11,0.66,1.52,8-18.13,3,1.35-9.16,20.87,0.66,1.52,9.6-21.88,3,1.37L336.8,284.76l0.66,1.52,11.23-25.58,3,1.35-12.42,28.3,0.66,1.51,12.87-29.32c1,0.42,2,.85,3,1.28l-14.08,32.09,0.67,1.5,14.54-33.14c1,0.39,2,.78,3.06,1.14l-15.8,36,0.67,1.49,16.29-37.11c1,0.34,2.07.66,3.14,1l-17.61,40.13,0.68,1.46,18.11-41.28q1.6,0.41,3.25.71l-19.5,44.43,0.68,1.47,20-45.68c1.12,0.18,2.25.31,3.39,0.4L351.77,317.5q0.35,0.67.73,1.35l22.11-50.39a35.54,35.54,0,0,0,3.58,0l-23.62,53.83q0.35,0.52.72,1l0.13,0.06,24.15-55A31.32,31.32,0,0,0,398.73,259Zm-83.9,3.68a3.52,3.52,0,1,1,3.52-3.52A3.52,3.52,0,0,1,314.82,262.71Z"/></clipPath><clipPath id="clip-path-2" transform="translate(-304.17 -242.88)"><path class="cls-1" d="M391.41,264.55c5.5,42-12.67,64.6-21.2,76-6.78,8.82-7.26,12.73-4.85,16.52-8.87,3.82-16.73,1.76-19.73,1.11a20.73,20.73,0,0,1-2.73-5.58c4.73-3.5,12.86-10.63,21.19-24.31,18.5-26.69,15.64-57.4,15.59-60.06A32.87,32.87,0,0,0,391.41,264.55Z"/></clipPath><clipPath id="clip-path-3" transform="translate(-304.17 -242.88)"><path class="cls-1" d="M398.73,259c-3.48-10.19-8.21-15.87-8.21-15.87-7,6.61-23.1,12.85-51.11,2.93s-35.23,5.93-35.23,11.67c0,2.86.84,9.43,8.87,10.27h0l0.16,0c0.74,0.08,1.79.42,2.57,3.42,8.44,32.79,14.54,65,22.68,83.67a0.36,0.36,0,0,0,.59.18c2.07-1.49,13.36-7.8,25-27-6.45-3.06-13.12-18.65-13.12-18.65-4.23-8.73-22.73-50.3-22.73-50.3-2.9-6.26-5.06-7-6.39-7.64,6.35,0,7.69,0,26.66,8.86C360.49,266.06,381.38,276,398.73,259Zm-87.42.17a3.52,3.52,0,1,1,3.52,3.52A3.52,3.52,0,0,1,311.31,259.19Z"/></clipPath><filter id="luminosity-noclip" x="327.3" y="-8491.64" width="36.26" height="32766" filterUnits="userSpaceOnUse" color-interpolation-filters="sRGB"><feFlood flood-color="#fff" result="bg"/><feBlend in="SourceGraphic" in2="bg"/></filter><mask id="mask" x="23.12" y="-8734.52" width="36.26" height="32766" maskUnits="userSpaceOnUse"><g class="cls-31"/></mask></defs><title>GUINNESS_CORE_HARP_HORIZONTAL_OPTI_2_COL</title><g class="cls-2"><g id="LOGO"><path class="cls-3" d="M562.49,288.34c0-7.82,6.58-7.49,6.58-7.49v-1.21H545.64v1.21s6.58-.33,6.58,7.49v43.29c0,7.82-6.58,7.49-6.58,7.49v1.22h23.43v-1.22s-6.58.33-6.58-7.49V288.34Z" transform="translate(-304.17 -242.88)"/><path class="cls-3" d="M587.14,331.64V295.84l-4.21-6v41.75c0,6.62-7.84,7.5-7.84,7.5v1.22h20v-1.22S587.14,338.49,587.14,331.64Z" transform="translate(-304.17 -242.88)"/><path class="cls-3" d="M614.19,279.64v1.22s8,0.72,8,7.58v30.74L593.8,279.66h-19v1.2s5.37,0.45,10.34,7.75c0.33,0.49,37.54,51.76,37.54,51.76h3.67V288.43c0-6.62,7.81-7.58,7.81-7.58v-1.22h-20Z" transform="translate(-304.17 -242.88)"/><path class="cls-3" d="M648.7,331.64V295.84l-4.21-6v41.75c0,6.62-7.84,7.5-7.84,7.5v1.22h20v-1.22S648.7,338.49,648.7,331.64Z" transform="translate(-304.17 -242.88)"/><path class="cls-3" d="M675.74,279.64v1.22s8,0.72,8,7.58v30.74l-28.36-39.52h-19v1.2s5.37,0.45,10.34,7.75c0.33,0.49,37.54,51.76,37.54,51.76h3.67V288.43c0-6.62,7.81-7.58,7.81-7.58v-1.22h-20Z" transform="translate(-304.17 -242.88)"/><path class="cls-3" d="M521.29,279.65v1.22c1.15,0,7.81.72,7.81,7.58v32.43c0,6.74-3.18,17.4-14.08,17.4-12.57,0-15.12-9.84-15.12-15.22V323h0V288.42c0-7.9,7.2-7.57,7.2-7.57v-1.22H481.47v1.22s7.2-.33,7.2,7.57V323h0v0.79c0,4.81,2,18.56,23.18,18.56,21,0,21.42-16.62,21.42-23.42V288.45c0-6.62,6.94-7.58,8-7.58v-1.22h-20Z" transform="translate(-304.17 -242.88)"/><path class="cls-3" d="M742,324.6h-1.55a15.61,15.61,0,0,1-3.2,6.87c-2.49,2.77-6.16,4.6-11.33,4.6l-10.23,0V310h4.8c2.19,0,7.81.14,9.74,1.65a7.77,7.77,0,0,1,3,5.12h0.92V298.58h-0.92a7.65,7.65,0,0,1-3,5.27c-1.76,1.32-7.54,1.45-9.74,1.45h-4.8V283.52H722c3.19,0,9.89-.2,12.85,2,3.66,2.7,3.84,5.81,3.84,5.81h0.9V279.65H699.41v1.21s6.58-.37,6.58,7.44v43.35c0,7.82-6.58,7.49-6.58,7.49v1.21h39.73Z" transform="translate(-304.17 -242.88)"/><path class="cls-3" d="M770.71,303.66c-4.6-1.71-15.9-3.65-15.9-12.43,0-6.59,6.23-10.35,11.7-10.35a15.25,15.25,0,0,1,12.16,5.57,21,21,0,0,1,3.89,7.39h1.09l-0.07-14.28h-1.1a3.32,3.32,0,0,1-2.68,1.17c-3.26,0-4.4-3.18-13.69-3.18S747.6,285.77,747.6,296s9.42,15.1,17.27,17.71c8.59,2.85,15.23,6.46,15.23,13S775.2,337,768.66,337s-10.19-2.46-14-6.81a23.83,23.83,0,0,1-4.91-10.42h-1.38v20.54h1.34a4.27,4.27,0,0,1,3.45-2.36c3.82-.28,7.76,3.17,15.59,3.17,8.26,0,18.47-6.06,18.47-18.58S775.87,305.59,770.71,303.66Z" transform="translate(-304.17 -242.88)"/><path class="cls-3" d="M814.68,303.66c-4.6-1.71-15.9-3.65-15.9-12.43,0-6.59,6.22-10.35,11.7-10.35a15.25,15.25,0,0,1,12.16,5.57,21.09,21.09,0,0,1,3.89,7.39h1.09l-0.08-14.28h-1.09a3.32,3.32,0,0,1-2.68,1.17c-3.26,0-4.4-3.18-13.69-3.18s-18.48,8.21-18.48,18.42,9.41,15.1,17.26,17.71c8.59,2.85,15.23,6.46,15.23,13S819.17,337,812.63,337s-10.19-2.46-14-6.81a23.82,23.82,0,0,1-4.91-10.42h-1.38v20.54h1.34a4.27,4.27,0,0,1,3.45-2.36c3.82-.28,7.76,3.17,15.59,3.17,8.26,0,18.47-6.06,18.47-18.58S819.84,305.59,814.68,303.66Z" transform="translate(-304.17 -242.88)"/><path class="cls-3" d="M454.62,305.94v1.2s7.09-.32,7.09,7.45v16.16a8.12,8.12,0,0,1,0,.88v1.9a30.45,30.45,0,0,1-15,3.84c-5,0-20.87-1.12-20.87-33s18.08-33.61,21.09-33.93c1.8-.19,9.68-0.37,15.79,4.87s7.18,13.5,7.18,13.5h1.84V269.08h-1a4.84,4.84,0,0,1-3.92,1.52c-3.55,0-9.28-4.6-19.69-4.27-21.13.69-36,16.51-36,39.61,0,22.49,17.65,35.93,35.08,35.93a59.69,59.69,0,0,0,7.22-.43h0.11c1.08-.19,2.25-0.26,3.5-0.55l0.25,0h0.05c1.54-.3,3-0.64,4.28-1,3.29-.58,7.83-0.92,11.41.83V330.32h0V329h0V314.59c0-7.77,7.09-7.45,7.09-7.45v-1.2H454.62Z" transform="translate(-304.17 -242.88)"/><path class="cls-4" d="M390.51,243.15c-7,6.61-23.1,12.85-51.11,2.93s-35.23,5.93-35.23,11.67c0,3.06,1,10.36,10.65,10.36,6.13,0,9.64-5.64,9.64-8.91s-2.62-7.44-2.62-7.44c6.35,0,7.69,0,26.66,8.86,12,5.45,32.87,15.4,50.22-1.59C395.24,248.83,390.51,243.15,390.51,243.15Zm-75.69,19.56a3.52,3.52,0,1,1,3.52-3.52A3.52,3.52,0,0,1,314.82,262.71Z" transform="translate(-304.17 -242.88)"/><path class="cls-4" d="M391.41,264.55c5.5,42-12.67,64.6-21.2,76-6.78,8.82-7.26,12.73-4.85,16.52-8.87,3.82-16.73,1.76-19.73,1.11a20.73,20.73,0,0,1-2.73-5.58c4.73-3.5,12.86-10.63,21.19-24.31,18.5-26.69,15.64-57.4,15.59-60.06A32.87,32.87,0,0,0,391.41,264.55Z" transform="translate(-304.17 -242.88)"/><path class="cls-4" d="M378.44,267.86l-23.87,54.4q0.35,0.52.72,1l0.13,0.06,24.41-55.63Q379.14,267.81,378.44,267.86Z" transform="translate(-304.17 -242.88)"/><path class="cls-4" d="M351.77,317.5q0.35,0.67.73,1.35l22.35-50.94-1.3-.07Z" transform="translate(-304.17 -242.88)"/><path class="cls-4" d="M349.2,312.21l0.68,1.47,20.28-46.21-1.24-.21Z" transform="translate(-304.17 -242.88)"/><path class="cls-4" d="M346.65,306.89l0.68,1.46,18.34-41.79-1.19-.31Z" transform="translate(-304.17 -242.88)"/><path class="cls-4" d="M344.16,301.42l0.67,1.49,16.51-37.62-1.15-.39Z" transform="translate(-304.17 -242.88)"/><path class="cls-4" d="M341.69,295.89l0.67,1.5,14.77-33.65L356,263.3Z" transform="translate(-304.17 -242.88)"/><path class="cls-4" d="M339.24,290.34l0.66,1.51L353,262l-1.11-.49Z" transform="translate(-304.17 -242.88)"/><path class="cls-4" d="M347.81,259.67l-11,25.09,0.66,1.52,11.45-26.09-0.17-.08Z" transform="translate(-304.17 -242.88)"/><path class="cls-4" d="M334.37,279.17l0.66,1.52,9.83-22.39-1.1-.51Z" transform="translate(-304.17 -242.88)"/><path class="cls-4" d="M331.94,273.56l0.66,1.52,8.18-18.65-1.11-.5Z" transform="translate(-304.17 -242.88)"/><path class="cls-4" d="M329.51,268l0.66,1.52,6.51-14.84-1.12-.47Z" transform="translate(-304.17 -242.88)"/><path class="cls-4" d="M321.85,251.75c1.32,0.66,3.48,1.38,6.39,7.64,0,0,18.5,41.57,22.73,50.3,0,0,6.67,15.59,13.12,18.65-11.67,19.16-23,25.47-25,27a0.36,0.36,0,0,1-.59-0.18c-8.13-18.66-14.24-50.88-22.68-83.67-0.84-3.25-2-3.37-2.75-3.43C313,268,328.49,267.31,321.85,251.75Z" transform="translate(-304.17 -242.88)"/><g class="cls-5"><g class="cls-6"><path class="cls-7" d="M379.36,260.34a26.9,26.9,0,0,1,2.81,1.12c0.92,0.41,1.83.81,2.77,1.13a9,9,0,0,0,2.87.53,10.12,10.12,0,0,0,2.89-.51c0.95-.29,1.88-0.66,2.81-1s1.73-.69,2.63-1c0.84-.85,1.32-1.4,1.32-1.4l0-.1-0.93.27c-0.94.31-1.87,0.68-2.81,1s-1.88.73-2.85,1a10.62,10.62,0,0,1-3,.51,9.39,9.39,0,0,1-3-.57c-1-.33-1.88-0.75-2.8-1.16l-1.15-.51,0.49-.23,0.83,0.36c0.92,0.41,1.83.81,2.77,1.13a9,9,0,0,0,2.87.53,10.1,10.1,0,0,0,2.89-.51c0.95-.29,1.88-0.66,2.81-1s1.86-.75,2.83-1.07l0.92-.27-0.36-1-0.4.12c-0.94.31-1.87,0.68-2.81,1s-1.88.73-2.85,1a10.61,10.61,0,0,1-3,.51,9.43,9.43,0,0,1-3-.57c-0.77-.26-1.51-0.58-2.24-0.91l0.44-.26c0.64,0.28,1.28.54,1.93,0.76a9,9,0,0,0,2.87.53,10.11,10.11,0,0,0,2.89-.51c0.95-.29,1.88-0.66,2.81-1s1.86-.75,2.83-1.07l0.39-.12-0.38-1c-0.89.3-1.77,0.64-2.66,1s-1.88.73-2.85,1a10.6,10.6,0,0,1-3,.51,9.44,9.44,0,0,1-3-.57l-0.71-.26,0.41-.3,0.44,0.16a9,9,0,0,0,2.87.53,10.16,10.16,0,0,0,2.89-.51c0.95-.29,1.88-0.66,2.81-1s1.75-.7,2.66-1l-0.39-1c-0.7.25-1.39,0.52-2.09,0.79-0.93.37-1.88,0.73-2.85,1a10.62,10.62,0,0,1-3,.51,8.54,8.54,0,0,1-2.29-.35l0.38-.35a7.86,7.86,0,0,0,1.91.25,10.17,10.17,0,0,0,2.89-.51c0.95-.29,1.88-0.66,2.81-1,0.69-.27,1.38-0.54,2.08-0.8l-0.41-1-1.49.57c-0.93.36-1.88,0.73-2.85,1a10.61,10.61,0,0,1-3,.51,7.6,7.6,0,0,1-.93-0.07l0.36-.41,0.57,0a10.17,10.17,0,0,0,2.89-.51c0.95-.29,1.88-0.66,2.81-1l1.47-.58-0.43-.94-0.87.34c-0.93.36-1.88,0.73-2.85,1a11.24,11.24,0,0,1-2.69.5l0.33-.47a11.44,11.44,0,0,0,2.23-.47c0.95-.29,1.88-0.66,2.81-1l0.84-.33-0.45-.93-0.21.08c-0.93.37-1.88,0.73-2.85,1a13.72,13.72,0,0,1-1.58.38l0.27-.52c0.39-.08.78-0.19,1.17-0.31,0.95-.29,1.88-0.66,2.81-1l0.18-.07-0.47-.92c-0.78.3-1.57,0.59-2.37,0.84l-0.7.19,0.22-.53,0.35-.1c0.77-.24,1.53-0.52,2.28-0.82l-0.51-.92c-0.54.2-1.09,0.4-1.64,0.56h0c0.06-.19.11-0.37,0.16-0.54,0.43-.14.86-0.29,1.29-0.45q-0.29-.5-0.55-0.93l-0.45.15,0-.2v-0.16s0-.09,0-0.13l0.16-.06c-0.31-.49-0.59-0.89-0.81-1.2-4.14,26.37-42.54,11.91-54.27,7.2-22.76-8.33-26.68,3.56-26.68,3.56a9.46,9.46,0,0,1,12.17-3.94c13.44,0,31.72,18.4,57.15,18.4,4.73,0,9.67-3.13,13.25-6l-0.39.22-1,.34a10.65,10.65,0,0,1-3,.51,9.38,9.38,0,0,1-3-.57c-1-.33-1.88-0.75-2.8-1.16a27.09,27.09,0,0,0-2.77-1.12,7.48,7.48,0,0,0-2.89-.41,12.28,12.28,0,0,0-2.89.62c-0.95.31-1.88,0.68-2.81,1s-1.88.73-2.84,1a10.56,10.56,0,0,1-3,.51,9.35,9.35,0,0,1-3-.57c-1-.33-1.88-0.75-2.79-1.16a26.79,26.79,0,0,0-2.77-1.13,7.5,7.5,0,0,0-2.92-.41,8.8,8.8,0,0,0-1.57.23l-0.31-.14a9.55,9.55,0,0,1,1.87-.32,7.78,7.78,0,0,1,3,.4,27.23,27.23,0,0,1,2.81,1.12c0.92,0.41,1.83.81,2.77,1.13a9.11,9.11,0,0,0,2.9.54,10.24,10.24,0,0,0,2.91-.51c1-.29,1.88-0.66,2.81-1s1.86-.75,2.82-1.07a12.51,12.51,0,0,1,3-.66,7.87,7.87,0,0,1,3,.41,27.33,27.33,0,0,1,2.81,1.12c0.92,0.41,1.83.81,2.77,1.13a9,9,0,0,0,2.87.53,10.14,10.14,0,0,0,2.89-.51c0.84-.26,1.66-0.57,2.48-0.9,0.8-.69,1.51-1.34,2.11-1.92l-1.61.62c-0.93.36-1.88,0.73-2.85,1a10.6,10.6,0,0,1-3,.51,9.39,9.39,0,0,1-3-.57c-1-.33-1.88-0.75-2.8-1.16a26.87,26.87,0,0,0-2.77-1.12l-0.61-.18,0.66-.22Zm-0.32,8-0.81.05a6.58,6.58,0,0,0-1.87-.1,9.08,9.08,0,0,0-1.09.17l-1.23,0a11.28,11.28,0,0,1,2.29-.49,7.86,7.86,0,0,1,3,.35l0.07,0Zm2.35-.33a21.77,21.77,0,0,0-2.15-.85,7.48,7.48,0,0,0-2.89-.41,12.23,12.23,0,0,0-2.89.62c-0.74.24-1.47,0.52-2.2,0.8l-0.34,0-0.35-.05c0.91-.36,1.83-0.73,2.77-1a12.63,12.63,0,0,1,3-.66,7.87,7.87,0,0,1,3,.41,25.3,25.3,0,0,1,2.62,1Zm2.13-.68L382,266.7a27.1,27.1,0,0,0-2.77-1.12,7.46,7.46,0,0,0-2.89-.41,12.21,12.21,0,0,0-2.89.62c-0.95.31-1.88,0.68-2.81,1s-1.61.62-2.43,0.89l-0.64-.13,0.14,0c1-.29,1.88-0.66,2.81-1s1.86-.75,2.82-1.07a12.56,12.56,0,0,1,3-.66,7.89,7.89,0,0,1,3,.41,27.36,27.36,0,0,1,2.81,1.12c0.65,0.29,1.3.58,2,.83Zm-27.2-3.82a27,27,0,0,1,2.81,1.12c0.92,0.41,1.83.81,2.77,1.13a9.08,9.08,0,0,0,2.9.54,10.23,10.23,0,0,0,2.91-.51c1-.29,1.88-0.66,2.81-1s1.86-.75,2.82-1.07a12.55,12.55,0,0,1,3-.66,7.85,7.85,0,0,1,3,.41,27.41,27.41,0,0,1,2.81,1.12c0.92,0.41,1.83.81,2.77,1.13a10.61,10.61,0,0,0,1.79.45l-0.82.28c-0.37-.09-0.74-0.2-1.1-0.33-1-.33-1.88-0.75-2.8-1.16a26.87,26.87,0,0,0-2.77-1.12,7.48,7.48,0,0,0-2.89-.41,12.2,12.2,0,0,0-2.89.62c-0.95.31-1.88,0.68-2.81,1s-1.88.73-2.84,1a10.57,10.57,0,0,1-3,.51,7.62,7.62,0,0,1-1-.08,10.76,10.76,0,0,1-2-.49c-0.52-.18-1-0.38-1.53-0.6L359,264.9a27,27,0,0,0-2.77-1.13,11,11,0,0,0-1.35-.33l-0.78-.32A9.49,9.49,0,0,1,356.32,263.55ZM361.9,261h0a9.1,9.1,0,0,0,2.9.54,8.14,8.14,0,0,0,1.36-.13l1.13,0.06a9.65,9.65,0,0,1-2.48.36,9.35,9.35,0,0,1-3-.57c-0.37-.13-0.74-0.27-1.1-0.42Zm-20.11-4.1a10.32,10.32,0,0,1-1.68-.18l-0.7-.31h0a10.8,10.8,0,0,0,2.36.33h0a9.07,9.07,0,0,0,2.15-.3h0l0.22,0.08,0.09,0h0a9.55,9.55,0,0,1-2.42.35h0Zm1.84,1.41h0l-0.24-.11h0a13.42,13.42,0,0,0,1.36-.35c0.48-.15,1-0.33,1.61-0.56h0l0.13,0,0.14,0h0c-0.73.28-1.3,0.47-1.83,0.63S344,258.27,343.63,258.35Zm2.14,1-0.06,0-0.22-.1,0.06,0h0c0.67-.23,1.33-0.49,2-0.76l1-.41h0l0.1,0,0.2,0.06h0l-1.12.43-0.15.06c-0.58.23-1.2,0.47-1.82,0.68h0Zm1.95,0.91h0l-0.23-.11h0.07l0.24-.1c0.84-.33,1.71-0.68,2.58-1l0.72-.22h0l0.36,0.1,0,0h-0.05c-0.33.09-.67,0.19-1,0.31-0.89.29-1.7,0.6-2.55,0.94ZM370.65,262c-0.94.37-1.88,0.73-2.84,1a10.54,10.54,0,0,1-3,.51,9.39,9.39,0,0,1-3-.57c-1-.33-1.88-0.75-2.79-1.16a27,27,0,0,0-2.77-1.13,7.54,7.54,0,0,0-2.92-.41,12.32,12.32,0,0,0-2.91.62l-0.89.31-0.25-.12,1.08-.38a12.46,12.46,0,0,1,3-.65,7.75,7.75,0,0,1,3,.4,27.14,27.14,0,0,1,2.81,1.12c0.92,0.41,1.83.81,2.77,1.13a9.06,9.06,0,0,0,2.9.54,10.23,10.23,0,0,0,2.91-.51c1-.29,1.88-0.66,2.81-1l0.15-.06h0.93Z" transform="translate(-304.17 -242.88)"/></g></g><g class="cls-5"><g class="cls-8"><path class="cls-7" d="M391.64,265c-0.27.14-.4,0.19-0.75,0.35,0.15,5.35-.74,5.41-5.1,6.78-5.5,1.86-5.14.3-6.55,13.59V267.09l12.39-3.25V265Z" transform="translate(-304.17 -242.88)"/><path class="cls-7" d="M344.75,355.1c1-.29,1.89-0.66,2.82-1s1.86-.75,2.82-1.07a12.47,12.47,0,0,1,3-.65,6.16,6.16,0,0,1,1,0c0.23-.39.49-0.82,0.81-1.29a6.52,6.52,0,0,0-1.76-.11,12.42,12.42,0,0,0-2.91.63c-1,.31-1.88.68-2.82,1s-1.87.73-2.84,1l-0.29.09,0.24-.2,0.08-.06c0.93-.29,1.84-0.65,2.75-1s1.86-.75,2.82-1.07a12.53,12.53,0,0,1,3-.65,6.84,6.84,0,0,1,1.92.12c0.25-.36.53-0.75,0.85-1.16a7.38,7.38,0,0,0-2.75-.36,12.23,12.23,0,0,0-2.91.63c-0.92.3-1.82,0.65-2.72,1l0.43-.37c0.73-.29,1.47-0.58,2.23-0.83a12.52,12.52,0,0,1,3-.65,7.71,7.71,0,0,1,2.92.38c0.26-.33.54-0.69,0.85-1.07-0.28-.11-0.55-0.21-0.84-0.3a7.53,7.53,0,0,0-2.92-.41,11.33,11.33,0,0,0-2.39.47l0.37-.32a10.78,10.78,0,0,1,2-.37,7.77,7.77,0,0,1,3,.4c0.31,0.1.62,0.21,0.93,0.33l0.84-1c-0.61-.26-1.22-0.51-1.84-0.72a7.57,7.57,0,0,0-2.9-.41l0.27-.24a8.08,8.08,0,0,1,2.7.42,20.8,20.8,0,0,1,1.95.74l0.84-1-0.09,0a27.22,27.22,0,0,0-2.77-1.13,9.55,9.55,0,0,0-1.17-.3l0.22-.19a10.12,10.12,0,0,1,1,.27,27.49,27.49,0,0,1,2.81,1.12l0.16,0.07,0.86-1-1.13-.5c-0.83-.38-1.67-0.75-2.53-1l0.21-.18c0.83,0.29,1.63.64,2.42,1l1.21,0.53,0.89-1c-0.75-.29-1.48-0.62-2.21-0.94l-1.25-.55L358,342l1.15,0.5c0.76,0.34,1.53.68,2.31,1l0.94-1-0.56-.18c-1-.33-1.88-0.75-2.79-1.16h0l0.21-.19c0.89,0.4,1.78.79,2.7,1.1l0.69,0.21,1-1.1a10.88,10.88,0,0,1-1.83-.47c-0.55-.19-1.09-0.41-1.62-0.64l0.22-.2c0.49,0.21,1,.41,1.49.58a10.59,10.59,0,0,0,2,.47l1.22-1.27h-0.3a9.32,9.32,0,0,1-3-.57l-0.4-.15,0.23-.21,0.27,0.09a9,9,0,0,0,2.9.54l0.62,0L367,337.7a9.2,9.2,0,0,1-2.13.27,8.32,8.32,0,0,1-2.1-.3l0.24-.23a8,8,0,0,0,1.86.23,9.58,9.58,0,0,0,2.53-.4q0.83-.88,1.72-1.85c-0.41.15-.83,0.29-1.25,0.42a10.52,10.52,0,0,1-3,.51,7,7,0,0,1-.7,0l0.27-.27h0.43a10.19,10.19,0,0,0,2.91-.51c0.61-.19,1.21-0.41,1.81-0.64,0.56-.62,1.12-1.26,1.7-1.93l-0.58.22c-0.93.37-1.87,0.73-2.84,1a12.36,12.36,0,0,1-2.09.45l0.34-.35a13.08,13.08,0,0,0,1.66-.4c1-.29,1.88-0.66,2.81-1l1.16-.46q0.74-.87,1.49-1.8c-0.85.29-1.69,0.62-2.53,0.95s-1.87.73-2.84,1l-0.21.06,0.41-.46c0.85-.28,1.68-0.6,2.52-0.93s1.87-.75,2.82-1.07l0.23-.07q0.62-.78,1.24-1.6c-0.46.11-.91,0.24-1.36,0.38-0.95.31-1.88,0.68-2.81,1l-1,.39,0.44-.52,0.46-.18c0.93-.37,1.87-0.75,2.82-1.07a15.3,15.3,0,0,1,1.81-.49q0.52-.69,1-1.4a12.61,12.61,0,0,0-2.73.61c-0.62.2-1.24,0.43-1.86,0.67l0.42-.53c0.44-.17.88-0.33,1.33-0.48a12.52,12.52,0,0,1,3-.66h0.14l0.86-1.24a6.2,6.2,0,0,0-1,0,12.29,12.29,0,0,0-2.89.62l-0.1,0,0.37-.49a11.8,11.8,0,0,1,2.6-.54,6.52,6.52,0,0,1,1.25,0l0.74-1.12a6.7,6.7,0,0,0-2-.16,9.78,9.78,0,0,0-1.48.23l0.31-.44a9.44,9.44,0,0,1,1.14-.16,7.16,7.16,0,0,1,2.21.18l0.66-1a7.44,7.44,0,0,0-2.85-.4l-0.2,0,0.27-.39a7.92,7.92,0,0,1,2.94.41l0.05,0,0.6-1-0.77-.28a8.44,8.44,0,0,0-2-.41l0.23-.36a9,9,0,0,1,1.87.4c0.29,0.09.58,0.2,0.86,0.3l0.56-1c-0.51-.21-1-0.42-1.54-0.59a10.05,10.05,0,0,0-1-.27l0.22-.34c0.32,0.07.63,0.15,0.93,0.25,0.55,0.17,1.09.39,1.62,0.61l0.53-1a22.83,22.83,0,0,0-2.27-.9l-0.16,0,0.21-.34,0.07,0a23.14,23.14,0,0,1,2.35.92l0.51-1-0.21-.09c-0.7-.31-1.41-0.63-2.12-0.9l0.2-.35c0.71,0.26,1.4.57,2.09,0.87l0.23,0.1,0.49-1L382,315.2l-1.36-.6,0.2-.35,1.33,0.58,0.9,0.4,0.47-1c-0.52-.22-1-0.45-1.54-0.67l-0.64-.28,0.19-.36,0.61,0.27,1.55,0.67,0.46-1c-0.72-.28-1.42-0.59-2.11-0.9l0.19-.36c0.7,0.31,1.39.61,2.09,0.88l0.44-1c-0.7-.24-1.38-0.53-2-0.83l0.19-.37c0.66,0.29,1.33.57,2,.79h0l0.43-1-0.59-.18c-0.47-.16-0.94-0.35-1.39-0.54l0.18-.38c0.44,0.19.89,0.36,1.35,0.51l0.61,0.19,0.42-1.07q-0.59-.14-1.17-0.34l-0.75-.28,0.18-.38,0.71,0.25a11.74,11.74,0,0,0,1.18.33l0.4-1.1a11.18,11.18,0,0,1-1.72-.45l-0.11,0,0.17-.39,0.08,0a10.63,10.63,0,0,0,1.74.43l0.39-1.13a9.77,9.77,0,0,1-1.76-.36l0.17-.4a9.06,9.06,0,0,0,1.73.33q0.19-.57.37-1.16a8.42,8.42,0,0,1-1.66-.24l0.17-.41a7.79,7.79,0,0,0,1.63.21q0.18-.59.35-1.18h-0.24a7.84,7.84,0,0,1-1.31-.12l0.16-.42a7.22,7.22,0,0,0,1.15.09h0.38q0.17-.59.33-1.2c-0.23,0-.46,0-0.7,0a7.33,7.33,0,0,1-.74,0l0.15-.43,0.58,0a7.24,7.24,0,0,0,.82-0.05c0.1-.4.2-0.8,0.3-1.21a8.07,8.07,0,0,1-1.12.08h-0.17l0.15-.44h0a8,8,0,0,0,1.24-.11q0.14-.6.28-1.21a8.74,8.74,0,0,1-1.14.14l0.15-.46a9.15,9.15,0,0,0,1.1-.16c0.09-.4.17-0.8,0.25-1.21a9.67,9.67,0,0,1-1,.16l0.14-.47c0.31,0,.62-0.11.93-0.18q0.12-.6.22-1.21l-0.8.16,0.13-.48,0.75-.17c0.07-.4.13-0.8,0.2-1.2l-0.63.15,0.12-.5,0.58-.15c0.06-.4.12-0.79,0.17-1.2l-0.45.12,0.12-.5,0.39-.11q0.08-.59.15-1.18l-0.27.08,0.11-.51,0.13,0,0.09,0a96.54,96.54,0,0,0,.46-14.72c-1.64,21-7.09,42.46-31.52,65.18,3.57-4.57,2.59-7,5.2-12,0,0-15.05,21.59-22.64,25.34l1,2.16c0.19-.11.6-0.44,0.71-0.23s0.28,0.53.61,1.08Z" transform="translate(-304.17 -242.88)"/><path class="cls-7" d="M353.36,352.57a12.28,12.28,0,0,0-2.91.63c-1,.31-1.88.68-2.82,1s-1.87.73-2.84,1l-0.1,0c0.23,0.37.49,0.78,0.78,1.19,0.7-.24,1.39-0.51,2.08-0.79,0.93-.37,1.86-0.75,2.82-1.06a12.48,12.48,0,0,1,3-.65h0.13c0.21-.45.44-0.9,0.71-1.4A6,6,0,0,0,353.36,352.57Z" transform="translate(-304.17 -242.88)"/><path class="cls-7" d="M350.39,356.25a14.15,14.15,0,0,1,2.27-.57c0.27-.53.49-1,0.71-1.48h0a12.32,12.32,0,0,0-2.91.62c-1,.31-1.88.68-2.82,1-0.68.26-1.36,0.52-2,.76l0.11,0.14a7.82,7.82,0,0,0,2.31.38C348.79,356.83,349.58,356.52,350.39,356.25Z" transform="translate(-304.17 -242.88)"/><path class="cls-7" d="M350.46,356.44c-0.65.21-1.3,0.45-1.94,0.7a10.59,10.59,0,0,0,3.4-.65,1.14,1.14,0,0,0,.62-0.58A14.31,14.31,0,0,0,350.46,356.44Z" transform="translate(-304.17 -242.88)"/></g></g><path class="cls-9" d="M344.29,349.78a25.36,25.36,0,0,1-3.07,2.32c-1,.64-2.06,0-3.11-1.91-1.34-2.47-4.35-11.64-5.65-16.33,1,2,4.34,10.82,6.59,15.54,0.71,1.23,1.27,2.17,3.05,1.37Z" transform="translate(-304.17 -242.88)"/><path class="cls-9" d="M318.42,279.15c0.2-4.25-2-6.93.91-8.47,1.85-1,2.06-1.85,2.06-1.85a14.29,14.29,0,0,0-1.58-4.21c-0.14-.19-0.24,0-0.24,0a7.41,7.41,0,0,1-5.53,3.33C317,268.87,317.27,277.27,318.42,279.15Z" transform="translate(-304.17 -242.88)"/><path class="cls-9" d="M312.22,256.83a3.5,3.5,0,0,1,2.6-1.16l0.4,0a6.06,6.06,0,0,1,.64,0,6.23,6.23,0,0,1,3.24.9,5,5,0,0,0-9.27,2.81,5.24,5.24,0,0,0,0,.71A6.26,6.26,0,0,1,312.22,256.83Z" transform="translate(-304.17 -242.88)"/><path class="cls-9" d="M319.7,257.31h0a5.22,5.22,0,0,1-2.93,6.72,5.83,5.83,0,0,0,2.93-1,0.62,0.62,0,0,1,.88.43c8.77,21.36,23.58,67.37,32.4,80l2.22-2.55C344,326.76,335.36,295.35,319.7,257.31Z" transform="translate(-304.17 -242.88)"/><g class="cls-5"><g class="cls-10"><path class="cls-7" d="M356.81,322.49l1.93-1.16-1.12-1.85-0.68.41-1.53,3.48-0.13-.06q-0.37-.52-0.72-1l0.83-1.89c-0.6-.94-0.88-1.39-1.44-2.37l2.57-1.55-1.42-2.38-0.69.42-1.91,4.36q-0.38-.69-0.73-1.35l0.84-1.91h0c-0.4-.75-0.79-1.49-1.15-2.21-0.15-.3,0,0-0.25-0.49l2.82-1.7-1.44-2.5-0.7.42-2,4.57-0.68-1.47,0.8-1.83,0-.1c-0.47-1-.71-1.52-1.3-2.8l2.83-1.71-1.41-2.47-0.71.43-2,4.62-0.68-1.46,0.84-1.92,0-.09c-0.5-1.08-.71-1.65-1.26-2.85l2.8-1.69-1.43-2.44-0.72.44-2,4.57-0.67-1.49L345,299.5l0,0c-0.51-1.11-.77-1.77-1.3-2.94l2.74-1.66L345,292.51l-0.73.44-2,4.45-0.67-1.5,0.82-1.87c-0.51-1.13-.82-1.85-1.35-3l2.68-1.62-1.32-2.27-0.74.45-1.88,4.28-0.66-1.51,0.79-1.81c-0.5-1.12-.83-1.92-1.34-3l2.62-1.58-1.3-2.18-0.75.46-1.8,4.09-0.66-1.52,0.76-1.73c-0.5-1.11-.89-2-1.37-3.11l2.54-1.54-1.23-2-0.77.46L335,280.69l-0.66-1.52,0.72-1.65-1.45-3.24,2.47-1.49L335,270.94l-0.78.47-1.61,3.68-0.66-1.52,0.68-1.56-1.42-3.17,2.38-1.44-1.12-1.85-0.79.48-1.52,3.46L329.51,268l0.65-1.47-3.57-8c-3.56-8-9.07-7-11.11-6.48,2.81-.26,6.59.38,8.8,5.77,2.47,6,22.18,54.73,26.28,62,3.07,5.46,6.72,11.22,13.53,8.53C361.72,328.29,359.17,325.79,356.81,322.49Z" transform="translate(-304.17 -242.88)"/></g></g><path class="cls-9" d="M332,317.51a0.51,0.51,0,1,1,.65.31A0.51,0.51,0,0,1,332,317.51Zm10.82,22a1.25,1.25,0,0,1,1.66.66,1.14,1.14,0,0,1-.86,1.42,1.23,1.23,0,0,1-1.59-.55A1.14,1.14,0,0,1,342.85,339.47Zm-0.56-1.23a2.22,2.22,0,0,0-1.44,2.74,1.31,1.31,0,0,0,.69.86l0.09,0.06h0a5.94,5.94,0,0,1-1.18-.5,3.46,3.46,0,0,1-1.54-1.46l0-.06,0-.09a0.18,0.18,0,0,0-.11-0.13,0.16,0.16,0,0,0-.15.05l-0.45.38-0.16.13a0.14,0.14,0,0,0,0,.16,0.73,0.73,0,0,0,.11.17,6.35,6.35,0,0,0,3.13,2.42,4.21,4.21,0,0,0,2.66-.11,2.34,2.34,0,0,0,1.65-3.11A2.53,2.53,0,0,0,342.29,338.24Zm0.26-6.52,1.14,3.18a0.17,0.17,0,0,1,0,.16,0.16,0.16,0,0,1-.14.06H342.7a0.25,0.25,0,0,1-.27-0.15l-0.74-2.08a0,0,0,0,0,0,0l-0.15,0-1.31.33h0l0,0a1.78,1.78,0,0,1,.7,1.06,2.22,2.22,0,0,1-1.46,2.72,2.72,2.72,0,0,1-1.9,0,2.31,2.31,0,0,1-1.33-1.38,2.69,2.69,0,0,1,0-2.35,0.19,0.19,0,0,1,.25-0.14l0.13,0,0.85,0.31a0.13,0.13,0,0,1,.09.08,0.15,0.15,0,0,1-.06.16l0,0,0,0a1.28,1.28,0,0,0-.16,1.36,1.24,1.24,0,0,0,1.71.71,1.12,1.12,0,0,0,.73-1.37,1.16,1.16,0,0,0-.77-0.77h0a0.17,0.17,0,0,1-.14-0.12v0l-0.14-.44-0.11-.34a0.17,0.17,0,0,1,0-.14,0.18,0.18,0,0,1,.12-0.08l3.64-1A0.22,0.22,0,0,1,342.55,331.72Zm-3.27-6.31,0.71-.18a0.22,0.22,0,0,1,.28.12l1.27,3.56a0.18,0.18,0,0,1-.08.25l-1,.35h0s-1.65-.46-3-0.68a7,7,0,0,0-3.16.15,0.17,0.17,0,0,1-.25-0.08l-0.43-1.21a0.17,0.17,0,0,1,0-.14,0.2,0.2,0,0,1,.14-0.09,8.63,8.63,0,0,1,3.55.12,16.3,16.3,0,0,1,2.55.7l0.16,0.06h0l-0.94-2.63a0.22,0.22,0,0,1,0-.18,0.2,0.2,0,0,1,.14-0.1h0Zm-0.77-4.22,0.09,0.1,0.59,0.7,0,0.05s0,0.13-.14.19l-6.32,2.26a0.2,0.2,0,0,1-.28-0.12l-0.31-.87a0.19,0.19,0,0,1,.13-0.25l6-2.12A0.22,0.22,0,0,1,338.51,321.19ZM334.23,317l-0.25-.7,2.18-.78h0l0.24,0.66a1,1,0,0,1-.83,1.06A1,1,0,0,1,334.23,317Zm2.18-2.39-3.16,1.13a0.11,0.11,0,0,0-.06.15l0.52,1.46A1.81,1.81,0,0,0,337,316l-0.45-1.26A0.11,0.11,0,0,0,336.41,314.64Zm-2.18-4.57,0.16,0,0.36,0a0.17,0.17,0,0,1,.2.12l0.94,2.63a0.15,0.15,0,0,1-.07.19l-0.09.06-0.41.25a0.13,0.13,0,0,1-.11,0,0.13,0.13,0,0,1-.07-0.09l-0.39-1.08h0L331,313.44h0a0.11,0.11,0,0,1-.16-0.08l-0.25-.71a0.11,0.11,0,0,1,.08-0.15l3.77-1.34v0l-0.14-.39-0.2-.56a0.09,0.09,0,0,1,0-.08,0.17,0.17,0,0,1,.13-0.05h0Zm-0.16-3a1.72,1.72,0,0,1-.13,1.37h0a0.13,0.13,0,0,1-.17,0h0l-0.61-.19h0a0.16,0.16,0,0,1-.11-0.08,0.1,0.1,0,0,1,0-.11l0,0a0.62,0.62,0,0,0,.19-0.7,0.65,0.65,0,0,0-.79-0.48,0.75,0.75,0,0,0-.35.82c0,0.08,0,.17,0,0.27v0.09a1.5,1.5,0,0,1-1,1.55,1.69,1.69,0,0,1-2.18-1.08,1.47,1.47,0,0,1,.17-1.74,0.15,0.15,0,0,1,.2-0.06l0.59,0.28h0l0,0a0.14,0.14,0,0,1,0,.12l0,0a1,1,0,0,0-.18,1,0.7,0.7,0,0,0,.95.46c0.44-.16.48-0.38,0.53-1.13h0a1.41,1.41,0,0,1,1-1.59A1.58,1.58,0,0,1,334.07,307.09Zm-6.94-4.48,4.46-1.59a0.14,0.14,0,0,1,.18.08l0.82,2.29a0.08,0.08,0,0,1,0,.08,0.14,0.14,0,0,1-.11.05h-0.08l-0.49.06a0.19,0.19,0,0,1-.19-0.13l-0.48-1.34s0,0-.07,0l-1,.37h0l0.48,1.34a0.11,0.11,0,0,1-.08.14l-0.5.18a0.11,0.11,0,0,1-.15-0.08l-0.47-1.32h0l-1.35.48h0l0.54,1.51a0.12,0.12,0,0,1,0,.15l0,0-0.44.26a0.14,0.14,0,0,1-.12,0,0.1,0.1,0,0,1-.06-0.06L327,302.77A0.12,0.12,0,0,1,327.13,302.61Z" transform="translate(-304.17 -242.88)"/><g class="cls-5"><g class="cls-11"><path class="cls-12" d="M348.12,329.69c8-3.89,10.5.62,14.54,1.17" transform="translate(-304.17 -242.88)"/><path class="cls-13" d="M348.71,331.06c6.86-3.33,10.06.5,13,1.24" transform="translate(-304.17 -242.88)"/><path class="cls-14" d="M349.46,332.44c5.87-3,9.8.87,11.45,1.1" transform="translate(-304.17 -242.88)"/><path class="cls-15" d="M350.23,333.71c5.15-2,8.46.84,9.76,1.1" transform="translate(-304.17 -242.88)"/><path class="cls-15" d="M351,335.12c1-.36,3.63-1.33,8.08.94" transform="translate(-304.17 -242.88)"/><path class="cls-16" d="M351.86,336.45c1-.2,2.88-0.74,6.34.84" transform="translate(-304.17 -242.88)"/><path class="cls-17" d="M352.74,337.9a8.17,8.17,0,0,1,4.52.66" transform="translate(-304.17 -242.88)"/><path class="cls-18" d="M353.78,339.49a6.23,6.23,0,0,1,2.53.33" transform="translate(-304.17 -242.88)"/><path class="cls-19" d="M347.45,328.3s5.36-2.58,8.34-1.62" transform="translate(-304.17 -242.88)"/><path class="cls-18" d="M361,328.74a14.73,14.73,0,0,0,2.55.8" transform="translate(-304.17 -242.88)"/><path class="cls-20" d="M346.74,326.92c0.94-.38,5.51-2.24,7.32-2.11" transform="translate(-304.17 -242.88)"/><path class="cls-21" d="M346.14,325.52c0.81-.31,5.52-2.25,6.73-2.22" transform="translate(-304.17 -242.88)"/><path class="cls-22" d="M345.51,324.14c0.84-.34,5.47-2.21,6.51-2.27" transform="translate(-304.17 -242.88)"/><path class="cls-23" d="M344.83,322.73c0.85-.21,5.88-2.29,6.31-2.26" transform="translate(-304.17 -242.88)"/><path class="cls-24" d="M344.22,321.26c1-.13,5.26-1.93,6.11-2.18" transform="translate(-304.17 -242.88)"/><path class="cls-25" d="M343.62,319.75c1.21-.11,5.35-1.87,6.05-2.08" transform="translate(-304.17 -242.88)"/><path class="cls-25" d="M343,318.24c1.71-.11,5.47-1.77,6.17-2" transform="translate(-304.17 -242.88)"/><path class="cls-25" d="M342.29,316.6c1.7,0.22,5.7-1.56,6.06-1.68" transform="translate(-304.17 -242.88)"/><path class="cls-25" d="M341.71,315c2,0.26,5.53-1.33,6-1.5" transform="translate(-304.17 -242.88)"/><path class="cls-25" d="M341.11,313.43c2.46,0.25,5.43-1,6-1.24" transform="translate(-304.17 -242.88)"/><path class="cls-25" d="M340.39,311.7c2.42,0.59,5.59-.75,6.09-0.91" transform="translate(-304.17 -242.88)"/><path class="cls-26" d="M339.72,309.9a9.45,9.45,0,0,0,6.15-.54" transform="translate(-304.17 -242.88)"/><path class="cls-26" d="M338.92,308a8.18,8.18,0,0,0,6.31-.07" transform="translate(-304.17 -242.88)"/><path class="cls-26" d="M338.3,306.19a9.23,9.23,0,0,0,6.33.31" transform="translate(-304.17 -242.88)"/><path class="cls-26" d="M337.6,304.28c1.41,0.53,3.86,1.59,6.41.74" transform="translate(-304.17 -242.88)"/><path class="cls-26" d="M336.86,302.35c1.1,0.43,3.9,1.79,6.49,1.22" transform="translate(-304.17 -242.88)"/><path class="cls-27" d="M336.11,300.37c1.17,0.49,4.17,2,6.62,1.67" transform="translate(-304.17 -242.88)"/><path class="cls-27" d="M335.36,298.42c1.46,0.62,4.48,2.22,6.72,2" transform="translate(-304.17 -242.88)"/><path class="cls-27" d="M334.61,296.49c1.35,0.56,5.64,2.57,6.75,2.23" transform="translate(-304.17 -242.88)"/><path class="cls-27" d="M333.87,294.57c1.22,0.46,5.7,2.58,6.74,2.48" transform="translate(-304.17 -242.88)"/><path class="cls-28" d="M333.12,292.78c1.38,0.17,5.53,2.36,6.82,2.52" transform="translate(-304.17 -242.88)"/><path class="cls-28" d="M332.7,291c1.38,0.17,5.53,2.36,6.82,2.52" transform="translate(-304.17 -242.88)"/><path class="cls-28" d="M331.9,289.22c1.83,0,5.53,2.19,6.82,2.35" transform="translate(-304.17 -242.88)"/><path class="cls-28" d="M331.36,287.49c1.83,0,5.57,2.09,6.87,2.23" transform="translate(-304.17 -242.88)"/><path class="cls-28" d="M330.7,285.89c1.61-.41,5.06,1.46,6,1.71" transform="translate(-304.17 -242.88)"/><path class="cls-29" d="M332.72,278a9.08,9.08,0,0,0-4.82.4" transform="translate(-304.17 -242.88)"/><path class="cls-29" d="M331.92,276.21a9.24,9.24,0,0,0-4.6.69" transform="translate(-304.17 -242.88)"/><path class="cls-30" d="M328.35,279.81a7.31,7.31,0,0,1,5.08,0" transform="translate(-304.17 -242.88)"/><path class="cls-30" d="M334.28,281.7a7.52,7.52,0,0,0-5.37-.36" transform="translate(-304.17 -242.88)"/><path class="cls-28" d="M329.38,282.85a7.86,7.86,0,0,1,5.62.76" transform="translate(-304.17 -242.88)"/><path class="cls-28" d="M330.15,284.36s2-.6,5.73,1.25" transform="translate(-304.17 -242.88)"/></g><path class="cls-29" d="M326.76,275.45a12.4,12.4,0,0,1,4.55-.94" transform="translate(-304.17 -242.88)"/><path class="cls-29" d="M326.17,274a16.28,16.28,0,0,1,4.51-1.12" transform="translate(-304.17 -242.88)"/><path class="cls-29" d="M325.66,272.61a19.32,19.32,0,0,1,4.33-1.26" transform="translate(-304.17 -242.88)"/><path class="cls-29" d="M325.09,271.21a23.84,23.84,0,0,1,4.3-1.36" transform="translate(-304.17 -242.88)"/><path class="cls-29" d="M324.53,269.81a37.32,37.32,0,0,1,4.21-1.45" transform="translate(-304.17 -242.88)"/><path class="cls-29" d="M324,268.42a34.45,34.45,0,0,1,4.23-1.53" transform="translate(-304.17 -242.88)"/><path class="cls-29" d="M323.44,267s2.87-1.14,4.23-1.57" transform="translate(-304.17 -242.88)"/><path class="cls-29" d="M322.9,265.58s2.92-1.15,4.08-1.56" transform="translate(-304.17 -242.88)"/></g></g></g></svg>